:SAMPLES-PER-SECOND 30
:FULLY-SPECIFIED
:DEGREES
66
root  40.2156 38.312 0.755772 -166.467 -84.7606 162.453
RightUpLeg  13.0971 -8.57994 -4.56915
RightLeg  12.8903 8.45345 1.15504
RightFoot  -19.3379 -0.271204 -2.01523
RightToes  -4.65663e-010 0 -3.6325e-017
Spine  1.76953 2.23745 7.27155
Spine1  8.30886 4.61527 -8.60654
HEad  -17.8379 0.107967 -3.72107
LeftShoulder1  -0.697563 5.25383 -33.6899
LeftArm  -3.59649 22.385 -37.428
LeftForeArm  42.3615 -7.38861 -8.5098
LeftHand  -0.369245 10.7526 -6.41535
RightShoulder  -1.00058 -6.27692 29.5302
RightArm  22.7915 2.86533 49.3741
RightForeArm  14.3134 30.1666 5.78561
RightHand  -0.0263271 4.27754 -0.597727
LeftUpLeg  -16.6592 2.17344 -0.611615
LeftLeg  -3.95875 6.6288 -1.25957
LeftFoot  -1.47898 0.404417 -4.54218
LeftToes  8.74931e-010 -1.05764e-010 1.2659e-011
67
root  38.8559 38.0103 0.895139 -167.459 -84.4671 163.313
RightUpLeg  14.7917 -7.43756 -5.10449
RightLeg  14.3203 8.18155 1.21737
RightFoot  -21.0943 -0.166829 -0.294161
RightToes  -4.65663e-010 0 -3.6325e-017
Spine  2.33676 2.23981 6.57978
Spine1  7.39377 4.55178 -8.50526
HEad  -17.5027 0.0252905 -3.45895
LeftShoulder1  -0.73764 5.34226 -33.9511
LeftArm  -2.54499 22.0886 -37.0997
LeftForeArm  41.0439 -8.01664 -8.74034
LeftHand  -0.331929 10.7746 -5.62118
RightShoulder  -1.00936 -6.2908 29.6542
RightArm  23.8111 2.36843 49.3944
RightForeArm  12.6001 28.826 5.56138
RightHand  -0.0614225 4.16648 -1.03774
LeftUpLeg  -18.4507 2.24712 -1.24902
LeftLeg  1.72064 7.74163 -0.927719
LeftFoot  1.78957 0.150215 -1.61689
LeftToes  8.74931e-010 -1.05764e-010 1.2659e-011
68
root  37.4333 37.7078 1.0525 -165.31 -83.6828 160.564
RightUpLeg  16.4424 -4.47418 -5.70979
RightLeg  16.7568 6.41535 1.34499
RightFoot  -22.6514 0.0630491 2.18001
RightToes  -4.65663e-010 0 -3.6325e-017
Spine  2.78481 2.46849 5.55711
Spine1  7.06534 4.84129 -8.87545
HEad  -16.8971 -0.459841 -3.11462
LeftShoulder1  -0.743083 5.36921 -33.6651
LeftArm  -1.47517 21.3977 -37.2386
LeftForeArm  39.8028 -9.15256 -8.74258
LeftHand  -0.337076 10.4693 -6.07889
RightShoulder  -1.0994 -6.46863 30.5518
RightArm  24.8629 1.86626 48.9158
RightForeArm  11.6127 27.0358 5.19154
RightHand  0.00715314 4.91291 -0.212717
LeftUpLeg  -19.6237 3.10352 -2.59072
LeftLeg  7.71212 6.68376 -0.287279
LeftFoot  8.49558 -0.594043 3.07569
LeftToes  8.74931e-010 -1.05764e-010 1.2659e-011
69
root  36.0077 37.4509 1.18624 -159.84 -82.4937 154.531
RightUpLeg  16.7465 -0.981281 -6.85542
RightLeg  21.6669 5.09102 2.08895
RightFoot  -23.2372 0.48439 6.10337
RightToes  -4.65663e-010 0 -3.6325e-017
Spine  3.14542 2.69785 3.43089
Spine1  6.57487 4.95224 -8.94078
HEad  -16.5878 -1.97679 -1.90317
LeftShoulder1  -0.836403 5.59136 -33.8916
LeftArm  -1.03561 19.954 -36.7005
LeftForeArm  38.3222 -9.75097 -8.64008
LeftHand  -0.265025 9.8841 -5.21616
RightShoulder  -1.09315 -6.41603 30.9925
RightArm  26.6451 1.19115 49.2124
RightForeArm  9.76075 24.4016 4.7552
RightHand  0.00896764 4.01628 -0.16456
LeftUpLeg  -20.8053 5.905 -4.9013
LeftLeg  14.3795 3.47379 0.404751
LeftFoot  10.8235 -1.42779 7.04128
LeftToes  8.74931e-010 -1.05764e-010 1.2659e-011
70
root  34.6986 37.2297 1.27316 -150.408 -81.9438 145.068
RightUpLeg  14.7421 0.360023 -8.85767
RightLeg  29.648 6.07819 3.52787
RightFoot  -21.9426 0.945384 11.9723
RightToes  -4.65663e-010 0 -3.6325e-017
Spine  3.16606 2.61143 0.234042
Spine1  6.08989 4.55428 -8.67244
HEad  -17.1327 -4.66037 -1.0325
LeftShoulder1  -0.805333 5.49416 -34.2769
LeftArm  -0.249351 17.6187 -35.7734
LeftForeArm  35.7943 -10.524 -8.52552
LeftHand  -0.288998 10.5743 -4.93354
RightShoulder  -1.08214 -6.37738 31.1056
RightArm  26.8906 0.289644 50.3433
RightForeArm  9.71688 20.905 4.6561
RightHand  0.000495354 3.41096 -0.214815
LeftUpLeg  -22.223 7.07007 -7.39718
LeftLeg  20.9543 2.1853 1.36252
LeftFoot  6.57821 -1.38275 8.48498
LeftToes  8.74931e-010 -1.05764e-010 1.2659e-011
71
root  33.5506 37.2321 1.3117 -147.337 -81.3257 142.197
RightUpLeg  11.1396 2.10096 -10.0739
RightLeg  38.1685 6.89811 5.51246
RightFoot  -16.1043 0.654673 18.3202
RightToes  -4.65663e-010 0 -3.6325e-017
Spine  3.66522 2.57065 -1.46635
Spine1  5.1867 4.53751 -10.169
HEad  -15.5499 -6.28885 -2.06562
LeftShoulder1  -0.700964 5.25279 -33.9063
LeftArm  0.933141 15.3452 -35.1202
LeftForeArm  33.323 -12.9272 -7.56372
LeftHand  -0.295274 10.1688 -5.53347
RightShoulder  -1.04704 -6.31027 30.7534
RightArm  24.8182 -1.14491 52.1458
RightForeArm  12.7239 17.9717 5.49046
RightHand  0.0561715 2.47655 0.622374
LeftUpLeg  -21.9507 7.46593 -8.20269
LeftLeg  23.7502 2.30155 1.45434
LeftFoot  3.75792 -1.24016 9.15029
LeftToes  8.74931e-010 -1.05764e-010 1.2659e-011
72
root  32.385 37.4026 1.24202 -149.617 -81.3295 144.293
RightUpLeg  7.8931 3.65157 -9.85978
RightLeg  45.2353 6.3205 6.46317
RightFoot  -6.81807 -0.952652 22.4747
RightToes  -4.65663e-010 0 -3.6325e-017
Spine  3.97241 2.26709 -2.69299
Spine1  4.81684 4.40639 -11.466
HEad  -15.8771 -7.41574 -3.00916
LeftShoulder1  -0.663514 5.18257 -33.3675
LeftArm  4.70048 12.8193 -33.993
LeftForeArm  28.8705 -17.6308 -5.63099
LeftHand  -0.206168 9.02297 -4.75553
RightShoulder  -1.07258 -6.35548 31.0623
RightArm  27.7214 -1.71442 53.3909
RightForeArm  12.6186 17.1127 6.18896
RightHand  0.0554185 2.62355 0.591208
LeftUpLeg  -20.3855 7.12777 -7.75869
LeftLeg  25.214 3.01922 1.90014
LeftFoot  1.23205 -0.998764 8.97248
LeftToes  8.74931e-010 -1.05764e-010 1.2659e-011
73
root  31.2774 37.5686 1.01448 -149.555 -82.3413 143.976
RightUpLeg  5.77651 4.03393 -8.96949
RightLeg  49.8161 5.08359 6.06885
RightFoot  2.32584 -3.23638 26.637
RightToes  -4.65663e-010 0 -3.6325e-017
Spine  4.04364 1.63416 -5.01497
Spine1  4.81024 3.80634 -12.0966
HEad  -17.2262 -8.19261 -3.57819
LeftShoulder1  -0.698255 5.28872 -32.9632
LeftArm  7.83997 10.1233 -31.8211
LeftForeArm  24.6994 -24.3438 -3.75032
LeftHand  -0.156762 8.59027 -3.73248
RightShoulder  -0.974652 -6.10338 30.9151
RightArm  34.4557 -3.25236 54.5901
RightForeArm  10.8015 19.4819 5.567
RightHand  0.168964 2.91974 2.13939
LeftUpLeg  -18.6469 5.09391 -6.85741
LeftLeg  26.4093 4.00835 2.5139
LeftFoot  -0.9488 -0.765816 8.47041
LeftToes  8.74931e-010 -1.05764e-010 1.2659e-011
74
root  30.3048 37.7167 0.666226 -152.224 -83.1155 147.024
RightUpLeg  3.46246 4.33352 -7.578
RightLeg  52.719 5.14703 6.91385
RightFoot  9.2513 -5.23381 28.782
RightToes  -4.65663e-010 0 -3.6325e-017
Spine  3.53671 1.60031 -7.36486
Spine1  4.93607 3.97874 -13.5508
HEad  -17.5244 -7.65856 -4.19329
LeftShoulder1  -0.711073 5.36961 -31.9504
LeftArm  2.60014 6.4294 -30.1014
LeftForeArm  27.3865 -30.193 -5.04611
LeftHand  -0.100119 7.99362 -2.38892
RightShoulder  -0.930928 -6.01875 30.4253
RightArm  40.2309 -5.75393 55.4221
RightForeArm  8.8667 24.0803 4.60465
RightHand  0.157731 3.06757 1.93875
LeftUpLeg  -17.6746 3.23283 -5.53707
LeftLeg  27.3863 4.93984 3.13437
LeftFoot  -2.82321 -0.554141 7.64003
LeftToes  8.74931e-010 -1.05764e-010 1.2659e-011
75
root  29.3602 37.9041 0.24623 -161.302 -84.0882 156.244
RightUpLeg  1.74218 4.73368 -5.31823
RightLeg  54.3655 9.14346 12.9959
RightFoot  11.308 -5.28106 26.2665
RightToes  -4.65663e-010 0 -3.6325e-017
Spine  2.98083 1.6518 -9.46002
Spine1  5.39126 4.48252 -15.1566
HEad  -18.1283 -6.759 -4.52752
LeftShoulder1  -0.712432 5.44836 -30.4892
LeftArm  -2.74493 2.225 -29.576
LeftForeArm  30.5316 -37.2155 -6.67123
LeftHand  -0.0723796 7.41687 -1.76385
RightShoulder  -0.823322 -5.76043 29.8635
RightArm  40.743 -7.78744 55.9433
RightForeArm  10.1947 28.4261 5.59431
RightHand  0.138798 4.7078 1.31051
LeftUpLeg  -16.2664 0.683016 -3.68548
LeftLeg  27.949 6.39603 4.02642
LeftFoot  -4.50767 -0.348665 6.30224
LeftToes  8.74931e-010 -1.05764e-010 1.2659e-011
